<svg width="312" height="80" viewBox="0 0 312 80" fill="none" xmlns="http://www.w3.org/2000/svg">
<path d="M312 4.43877C312 2.06413 309.943 0.21628 307.582 0.464623L164.999 15.4583C164.736 15.486 164.47 15.4875 164.206 15.4626L4.37501 0.411978C2.02813 0.190981 0 2.03709 0 4.39436V75.6978C0 78.0215 1.97329 79.8561 4.29084 79.6872L164.295 68.0224C164.5 68.0075 164.706 68.0084 164.911 68.025L307.675 79.6479C310.005 79.8376 312 78.0054 312 75.6683C312 69.9022 312 58.2566 312 40C312 23.2425 312 10.6955 312 4.43877Z" fill="white"/>
</svg>
